<?xml version="1.0" standalone="no"?>
<!DOCTYPE svg PUBLIC "-//W3C//DTD SVG 20010904//EN"
 "http://www.w3.org/TR/2001/REC-SVG-20010904/DTD/svg10.dtd">
<svg version="1.0" xmlns="http://www.w3.org/2000/svg"
 width="499.000000pt" height="500.000000pt" viewBox="0 0 499.000000 500.000000"
 preserveAspectRatio="xMidYMid meet">

<g transform="translate(0.000000,500.000000) scale(0.100000,-0.100000)"
fill="#000000" stroke="none">
<path d="M2470 4913 c-63 -46 -177 -129 -253 -184 l-137 -99 -124 0 -125 0
-208 -166 c-114 -91 -209 -167 -210 -168 -1 -1 18 -56 43 -122 41 -108 44
-122 34 -156 -11 -37 -15 -40 -75 -51 -12 -2 -60 24 -127 70 -58 40 -110 73
-115 73 -4 -1 -39 -25 -78 -55 -38 -30 -137 -105 -218 -167 -86 -66 -149 -121
-152 -133 -2 -11 -14 -63 -25 -116 l-22 -95 -56 -45 c-31 -25 -146 -117 -254
-203 -109 -86 -198 -159 -198 -161 0 -2 38 -137 85 -300 47 -162 85 -303 85
-313 0 -9 -16 -68 -35 -131 l-34 -115 82 -278 81 -278 134 0 c129 0 134 -1
166 -26 31 -25 33 -29 23 -61 -8 -27 -36 -55 -116 -120 -59 -47 -108 -89 -109
-94 -2 -5 35 -128 83 -272 l87 -262 96 -66 96 -66 37 -114 c20 -63 62 -194 93
-292 l57 -177 317 0 317 0 82 -75 81 -75 275 0 274 0 49 117 c40 96 55 120 81
136 29 16 35 17 60 3 24 -12 33 -28 52 -93 47 -160 52 -171 74 -177 30 -8 395
-8 489 0 76 7 76 7 149 70 l74 64 317 0 317 0 10 38 c6 20 48 165 94 322 l84
285 94 67 c52 37 99 75 106 85 6 10 20 54 31 98 11 44 41 157 66 250 l47 170
-24 20 c-155 129 -172 147 -183 202 l-11 54 35 27 c32 25 42 27 162 30 l128 4
10 37 c6 20 38 136 72 258 l62 221 -41 120 -40 120 66 203 c36 112 80 249 98
303 l32 100 -46 36 c-25 20 -135 102 -243 183 -108 80 -199 155 -202 165 -4
11 -17 68 -29 128 l-23 108 -99 76 c-55 41 -157 119 -226 171 l-125 96 -65
-45 c-149 -105 -161 -112 -194 -112 -29 0 -35 4 -45 36 -13 38 -6 72 41 218
10 33 19 67 19 76 0 13 -132 128 -307 265 -14 11 -44 35 -65 53 l-40 32 -131
0 -132 0 -190 140 c-104 76 -215 157 -245 179 l-56 39 -114 -85z m288 -196
c92 -68 190 -140 218 -160 l52 -37 127 0 127 0 164 -132 c91 -73 163 -137 161
-143 -3 -5 -17 -53 -32 -106 l-28 -95 30 -100 29 -99 105 -3 104 -2 83 55 c46
30 89 55 95 54 7 0 84 -55 171 -123 l160 -122 17 -69 c9 -39 22 -95 28 -126
l12 -55 122 -90 c67 -50 172 -127 234 -173 l112 -82 -94 -277 -95 -277 42
-122 41 -123 -53 -195 -54 -195 -108 0 -108 0 -81 -71 c-64 -57 -80 -76 -75
-93 2 -11 15 -63 28 -115 l23 -94 70 -60 c38 -33 75 -64 82 -71 9 -8 8 -27 -7
-81 -11 -38 -34 -124 -51 -190 -17 -66 -38 -127 -46 -136 -8 -9 -52 -43 -99
-74 -47 -32 -89 -65 -93 -74 -4 -9 -46 -145 -92 -304 l-84 -287 -292 0 c-219
0 -295 -3 -305 -12 -7 -7 -43 -39 -80 -71 l-66 -57 -214 0 -215 0 -22 78 c-35
123 -37 126 -120 181 -43 28 -81 51 -85 51 -11 0 -165 -92 -174 -104 -5 -6
-26 -53 -47 -103 l-38 -93 -204 0 -205 0 -81 75 -82 75 -297 0 -297 0 -56 177
c-31 98 -71 221 -88 273 l-32 94 -95 68 -95 68 -62 188 c-34 103 -62 196 -62
207 0 13 26 40 75 79 88 69 93 75 129 183 l28 81 -39 34 c-21 18 -54 48 -73
65 l-36 33 -116 0 -117 0 -42 148 c-23 81 -51 180 -62 219 l-20 73 33 121 33
122 -17 61 c-42 154 -58 211 -101 356 l-46 155 26 20 c150 116 450 359 455
368 4 7 17 59 29 117 11 57 22 105 23 105 3 2 124 95 191 148 34 26 80 61 104
78 l43 30 85 -60 c46 -34 94 -61 107 -61 12 0 61 7 109 16 l87 16 31 92 30 91
-34 98 -34 97 153 125 154 125 123 0 123 0 229 170 c127 94 234 170 238 170 4
0 83 -55 176 -123z"/>
<path d="M2466 4714 c-55 -41 -105 -79 -110 -86 -6 -6 5 0 24 13 19 14 60 43
90 64 30 21 65 47 77 58 12 11 29 17 38 13 9 -3 13 -2 10 4 -11 18 -29 9 -129
-66z"/>
<path d="M2610 4766 c0 -2 8 -10 18 -17 15 -13 16 -12 3 4 -13 16 -21 21 -21
13z"/>
<path d="M2684 4712 c8 -13 66 -56 66 -49 0 3 -17 17 -37 33 -20 15 -33 23
-29 16z"/>
<path d="M2760 4656 c0 -2 8 -10 18 -17 15 -13 16 -12 3 4 -13 16 -21 21 -21
13z"/>
<path d="M2319 4603 c-13 -16 -12 -17 4 -4 9 7 17 15 17 17 0 8 -8 3 -21 -13z"/>
<path d="M2857 4583 c42 -37 158 -118 149 -105 -3 5 -45 38 -93 71 -49 34 -74
49 -56 34z"/>
<path d="M2210 4525 l-85 -65 -120 0 -121 0 -119 -96 c-160 -127 -160 -127
-146 -150 11 -18 12 -17 6 2 -5 18 16 39 127 128 l133 106 118 0 118 0 62 45
c69 49 125 94 117 94 -3 0 -43 -29 -90 -64z"/>
<path d="M3147 4461 c137 -6 137 -6 193 -61 15 -15 40 -32 40 -27 0 3 -25 26
-56 51 l-56 46 -126 -2 -127 -2 132 -5z"/>
<path d="M3403 4353 c20 -23 137 -117 137 -110 0 2 -35 33 -77 68 -43 35 -70
54 -60 42z"/>
<path d="M1665 4059 c-4 -6 -5 -12 -2 -15 2 -3 7 2 10 11 7 17 1 20 -8 4z"/>
<path d="M2447 4023 c-12 -3 -15 -11 -12 -26 3 -13 -3 -32 -14 -47 l-19 -24
-26 26 c-18 17 -24 31 -20 43 7 16 2 17 -44 11 -71 -9 -85 -15 -76 -35 14 -33
26 -117 21 -148 -5 -29 -3 -33 16 -33 31 0 56 18 40 28 -17 11 -39 150 -26
163 6 6 26 -8 57 -43 44 -47 48 -55 43 -90 -4 -32 -2 -38 13 -38 31 0 51 11
42 24 -23 28 -20 60 9 117 16 32 29 63 29 69 0 10 -3 11 -33 3z"/>
<path d="M2553 4018 c-6 -7 -22 -44 -37 -83 -15 -38 -31 -77 -36 -86 -11 -21
-3 -29 26 -29 18 0 22 5 20 33 -1 31 0 32 42 35 44 3 47 -1 43 -50 -2 -14 8
-16 57 -17 l60 0 -4 37 c-7 53 3 63 56 54 44 -8 45 -9 42 -42 -2 -19 -8 -36
-13 -38 -18 -7 -8 -20 18 -25 33 -6 47 0 35 16 -11 14 4 145 19 163 13 15 1
24 -34 24 -25 0 -28 -2 -17 -15 7 -9 10 -25 6 -41 -6 -23 -11 -26 -38 -20 -17
3 -39 6 -49 6 -22 0 -26 39 -7 58 10 10 10 15 -2 22 -38 24 -45 13 -48 -72 -3
-103 -29 -142 -47 -71 -9 39 -66 153 -75 153 -4 0 -12 -6 -17 -12z m27 -67
c14 -28 13 -31 -16 -31 -20 0 -25 4 -20 16 3 9 6 20 6 25 0 16 19 10 30 -10z"/>
<path d="M2147 3973 c-4 -3 -1 -13 7 -22 15 -17 38 -91 29 -91 -3 0 -24 15
-47 33 -56 46 -83 59 -106 52 -22 -7 -26 -21 -8 -27 12 -4 48 -137 41 -150
-18 -33 -80 82 -75 139 2 27 1 27 -33 11 -24 -11 -34 -28 -16 -28 13 0 61
-137 55 -155 -9 -23 11 -20 126 21 12 4 11 8 -6 22 -19 15 -51 108 -41 118 2
2 36 -23 76 -57 40 -33 75 -58 79 -55 3 4 -4 45 -16 92 -13 46 -20 89 -17 94
7 11 -38 14 -48 3z"/>
<path d="M2995 3960 c9 -28 -22 -141 -43 -156 -15 -11 -15 -13 11 -23 42 -16
48 -14 41 14 -7 27 13 115 26 115 9 0 60 -123 60 -145 0 -14 18 -30 26 -23 2
3 13 40 25 84 11 43 25 83 30 89 15 15 11 22 -16 27 -26 5 -43 -6 -26 -16 9
-6 -3 -67 -16 -90 -3 -4 -18 22 -34 60 -30 70 -41 84 -72 84 -14 0 -17 -5 -12
-20z"/>
<path d="M3510 3965 c0 -5 5 -17 10 -25 5 -8 10 -10 10 -5 0 6 -5 17 -10 25
-5 8 -10 11 -10 5z"/>
<path d="M1621 3933 c-1 -6 -4 -20 -7 -30 -5 -17 -5 -17 6 0 6 10 9 23 6 30
-3 9 -5 9 -5 0z"/>
<path d="M3210 3903 c0 -10 -12 -48 -27 -86 l-26 -68 20 -27 c25 -34 74 -49
108 -34 24 11 65 78 65 106 0 8 8 22 17 32 16 15 16 17 -2 30 -27 20 -35 17
-35 -13 0 -16 -11 -52 -25 -80 -18 -40 -29 -53 -45 -53 -35 0 -60 19 -60 46 0
29 37 106 56 117 21 12 17 22 -11 35 -33 15 -35 15 -35 -5z"/>
<path d="M1149 3883 c-13 -16 -12 -17 3 -5 14 11 23 9 57 -13 23 -14 41 -23
41 -20 0 5 -76 55 -84 55 -2 0 -10 -8 -17 -17z"/>
<path d="M3974 3874 c-18 -14 -18 -15 4 -4 12 6 28 8 34 4 7 -4 8 -3 4 4 -10
16 -18 15 -42 -4z"/>
<path d="M1104 3848 l-19 -23 23 19 c21 18 27 26 19 26 -2 0 -12 -10 -23 -22z"/>
<path d="M1790 3849 c-24 -11 -45 -21 -46 -22 -2 -1 13 -34 32 -72 18 -39 34
-80 34 -92 0 -29 8 -29 67 2 61 32 73 49 73 100 0 45 -24 79 -67 96 -33 12
-41 12 -93 -12z m95 -26 c18 -18 35 -56 35 -79 0 -17 -44 -64 -60 -64 -6 0
-25 30 -42 66 -30 64 -30 67 -13 80 25 19 60 18 80 -3z"/>
<path d="M4040 3856 c0 -2 8 -10 18 -17 15 -13 16 -12 3 4 -13 16 -21 21 -21
13z"/>
<path d="M1260 3836 c0 -3 9 -10 20 -16 11 -6 20 -8 20 -6 0 3 -9 10 -20 16
-11 6 -20 8 -20 6z"/>
<path d="M1005 3775 c-121 -95 -145 -120 -37 -39 91 69 121 94 110 94 -2 0
-34 -25 -73 -55z"/>
<path d="M3410 3813 c0 -21 -67 -140 -83 -147 -8 -3 -6 -9 7 -20 24 -19 48
-21 44 -3 -3 17 12 57 22 57 40 0 57 -60 23 -85 -15 -11 -14 -14 15 -29 18 -9
32 -13 33 -9 0 5 0 29 -1 55 -1 43 1 48 25 54 30 8 49 37 40 65 -6 17 -97 79
-117 79 -5 0 -8 -7 -8 -17z m74 -49 c35 -34 3 -64 -48 -44 -26 9 -26 10 -10
35 19 29 36 32 58 9z"/>
<path d="M3560 3824 c0 -6 7 -19 16 -30 14 -18 14 -18 3 6 -14 31 -19 36 -19
24z"/>
<path d="M4095 3810 c10 -11 20 -20 23 -20 3 0 -3 9 -13 20 -10 11 -20 20 -23
20 -3 0 3 -9 13 -20z"/>
<path d="M3864 3806 c-12 -8 -50 -17 -85 -19 l-64 -3 66 -2 c54 -2 71 2 90 18
28 23 23 27 -7 6z"/>
<path d="M1310 3806 c0 -3 9 -10 20 -16 11 -6 20 -8 20 -6 0 3 -9 10 -20 16
-11 6 -20 8 -20 6z"/>
<path d="M1445 3800 c-27 -7 -27 -8 -5 -8 14 0 39 4 55 8 27 7 27 8 5 8 -14 0
-38 -4 -55 -8z"/>
<path d="M1368 3783 c6 -2 18 -2 25 0 6 3 1 5 -13 5 -14 0 -19 -2 -12 -5z"/>
<path d="M4130 3786 c0 -2 8 -10 18 -17 15 -13 16 -12 3 4 -13 16 -21 21 -21
13z"/>
<path d="M2435 3769 c-697 -66 -1259 -573 -1374 -1243 -129 -744 375 -1480
1139 -1664 144 -35 210 -42 381 -42 274 0 477 46 714 162 203 100 429 292 564
481 116 161 208 380 247 584 23 119 23 376 0 492 -58 301 -183 542 -394 763
-120 126 -251 222 -411 302 -181 91 -347 139 -556 162 -142 15 -176 15 -310 3z
m-545 -275 c0 -3 -11 -20 -25 -38 -13 -17 -31 -60 -39 -94 -20 -86 -50 -144
-98 -189 -76 -71 -88 -86 -119 -148 -42 -86 -46 -126 -19 -215 12 -41 26 -80
30 -85 5 -6 13 -23 19 -37 9 -25 6 -29 -47 -69 -31 -23 -75 -62 -97 -86 l-41
-43 -117 0 -116 0 5 33 c3 17 12 64 19 102 10 51 11 89 5 140 -5 39 -9 73 -10
77 0 3 9 4 20 1 27 -7 57 -47 71 -94 7 -21 18 -40 26 -43 29 -11 24 27 -16
118 -27 61 -41 108 -41 135 0 78 42 113 53 45 8 -47 44 -89 64 -73 17 15 17
48 -2 92 -8 20 -15 50 -15 68 0 43 53 95 106 104 99 15 180 82 236 195 39 79
72 109 121 110 15 0 27 -3 27 -6z m1450 -20 c17 -15 44 -54 59 -88 15 -34 42
-77 58 -96 36 -41 121 -87 177 -95 45 -7 91 -48 102 -90 4 -18 0 -48 -11 -81
-17 -51 -15 -104 4 -104 17 0 50 51 57 87 14 73 61 9 50 -67 -3 -19 -22 -74
-42 -122 -35 -84 -39 -123 -12 -113 7 3 22 29 33 57 18 46 67 99 79 87 3 -3 0
-36 -6 -73 -10 -57 -8 -83 6 -160 10 -50 20 -99 23 -108 4 -16 -5 -18 -89 -18
l-94 0 -43 45 c-24 25 -76 68 -117 97 -56 38 -73 55 -68 67 41 94 65 181 61
219 -6 59 -60 164 -104 204 -101 91 -124 127 -149 235 -8 38 -26 82 -40 100
-31 40 -30 43 5 43 17 0 43 -11 61 -26z m-1454 -27 c-3 -13 -10 -65 -16 -117
-12 -106 -16 -114 -104 -208 -99 -105 -126 -175 -105 -273 6 -30 25 -73 41
-97 33 -47 31 -55 -12 -70 -34 -12 -37 -9 -65 69 -32 88 -43 148 -34 194 10
54 51 126 91 163 100 90 136 145 157 242 11 52 39 120 49 120 2 0 2 -10 -2
-23z m1408 -77 c22 -99 57 -161 132 -233 91 -87 126 -154 126 -241 0 -30 -47
-183 -61 -198 -3 -4 -22 -2 -42 5 l-36 11 28 46 c74 121 51 245 -66 359 -80
78 -94 106 -106 207 -5 49 -13 100 -16 114 -6 22 -4 23 9 12 9 -7 23 -44 32
-82z m-642 -130 c73 -68 152 -99 317 -127 146 -25 179 -38 168 -67 -5 -13 -23
-16 -84 -16 -88 -1 -115 -14 -115 -55 0 -59 51 -73 268 -74 122 -1 144 -7 144
-41 0 -22 -41 -40 -93 -40 -66 0 -87 -9 -87 -36 0 -35 32 -49 155 -68 60 -10
125 -24 143 -32 60 -25 232 -155 232 -176 0 -4 -497 -8 -1105 -8 -655 0 -1105
4 -1105 9 0 13 90 93 147 130 69 46 135 67 268 86 66 10 122 19 124 21 3 2 -8
18 -24 34 -23 24 -37 30 -69 30 -51 0 -90 19 -94 46 -6 40 19 46 205 52 200 6
222 12 223 68 0 39 -13 46 -104 53 -50 4 -72 11 -80 23 -5 9 -7 20 -3 24 3 4
68 19 144 35 181 38 287 83 356 151 10 10 20 18 22 18 2 0 23 -18 47 -40z
m-989 -772 c8 -28 1 -38 -26 -38 -19 0 -19 -2 10 -32 16 -18 38 -47 48 -65 10
-18 22 -30 27 -27 4 3 8 32 8 65 0 32 4 59 9 59 18 0 19 -15 6 -90 -7 -41 -10
-80 -8 -87 8 -21 -17 -43 -48 -43 -34 0 -40 25 -9 35 11 3 20 14 20 24 0 23
-49 86 -75 97 -36 16 -18 124 20 124 7 0 15 -10 18 -22z m1199 -122 c2 -77 0
-90 -17 -102 -26 -19 -41 -18 -64 5 -17 17 -21 18 -32 5 -13 -16 -65 -19 -74
-4 -4 6 -4 17 -1 25 4 12 10 13 30 3 39 -17 55 2 48 57 -6 55 13 61 22 8 12
-68 16 -73 47 -73 33 0 33 0 18 87 -11 64 -6 104 11 87 5 -5 10 -49 12 -98z
m774 63 c1 -89 5 -110 24 -126 11 -10 20 -25 20 -35 0 -20 -11 -23 -26 -8 -8
8 -19 8 -38 0 -36 -13 -42 -13 -59 5 -12 11 -21 12 -44 3 -37 -14 -63 -5 -63
22 0 22 10 26 27 9 6 -6 21 -8 32 -4 19 6 22 13 20 56 -3 56 7 75 17 33 19
-87 20 -89 43 -92 36 -6 40 8 27 84 -7 38 -10 76 -8 83 8 24 27 4 28 -30z m93
-111 c1 -26 -3 -49 -8 -52 -15 -10 -29 163 -13 178 8 9 20 -60 21 -126z
m-1917 50 c8 -106 -6 -131 -20 -36 -11 74 -9 108 8 108 4 0 10 -33 12 -72z
m1103 -2 c4 -42 3 -82 -3 -91 -6 -13 -11 0 -15 45 -9 85 -9 120 2 120 5 0 12
-34 16 -74z m-1465 39 c-3 -5 -9 -10 -15 -10 -5 0 -15 -4 -22 -8 -13 -8 -27 8
-19 21 7 12 62 9 56 -3z m780 -11 c0 -8 -7 -14 -15 -14 -15 0 -21 21 -9 33 10
9 24 -2 24 -19z m192 11 c-3 -12 -48 -26 -56 -17 -17 16 -3 30 27 29 17 -1 31
-6 29 -12z m678 -1 c0 -8 -9 -14 -20 -14 -11 0 -23 0 -27 -1 -5 0 -9 6 -11 14
-2 9 7 14 28 15 20 0 30 -4 30 -14z m-1641 -86 c1 -40 42 -39 71 2 26 36 47
39 56 6 8 -33 -3 -49 -32 -43 -15 2 -30 -3 -40 -14 -22 -24 -40 -24 -61 0 -9
11 -22 17 -29 14 -8 -3 -21 -2 -29 1 -18 7 -10 27 27 69 20 23 24 24 30 9 4
-9 7 -29 7 -44z m967 17 c5 -38 10 -45 28 -45 12 0 28 6 35 13 11 10 14 10 18
0 3 -7 12 -13 22 -13 9 0 23 6 30 13 11 10 14 10 18 0 3 -7 16 -13 29 -13 21
0 23 4 18 24 -3 13 -1 27 4 30 14 8 22 -32 12 -59 -10 -26 -47 -42 -62 -27 -7
7 -18 7 -34 0 -17 -8 -27 -8 -37 0 -8 7 -18 7 -27 2 -22 -14 -36 -12 -56 7 -9
9 -28 17 -42 18 -35 0 -38 20 -8 48 14 14 26 29 26 36 0 6 4 11 9 11 6 0 13
-20 17 -45z m154 25 c0 -13 -19 -22 -30 -15 -14 9 0 34 16 28 8 -3 14 -9 14
-13z m524 -25 c6 -38 11 -45 30 -45 12 0 28 6 35 13 11 10 14 10 18 0 7 -20
30 -15 46 8 11 15 16 17 20 7 3 -9 9 -8 20 7 14 18 16 18 22 3 4 -9 1 -26 -5
-38 -9 -16 -18 -20 -36 -16 -15 4 -24 2 -24 -5 0 -8 -12 -10 -35 -6 -19 3 -37
1 -40 -4 -9 -14 -32 -11 -51 8 -9 9 -28 17 -42 18 -35 0 -38 20 -8 50 14 14
26 30 26 35 0 6 4 10 9 10 5 0 12 -20 15 -45z m-870 -10 c9 -34 -7 -61 -44
-73 -16 -6 -30 -17 -30 -23 0 -21 -42 -59 -64 -59 -12 0 -28 5 -36 10 -12 8
-9 10 13 10 16 0 38 10 52 25 28 27 32 45 11 45 -23 0 -30 20 -15 46 15 29 35
31 44 4 8 -25 47 -27 44 -2 -4 47 14 60 25 17z m-200 -11 c22 -56 -21 -134
-74 -134 -16 0 -32 5 -35 10 -3 6 4 10 17 10 44 0 85 48 69 79 -11 20 -5 51 9
51 4 0 11 -7 14 -16z m1390 0 c28 -73 -35 -156 -97 -126 -21 10 -21 11 6 11
16 1 39 12 53 26 21 21 23 30 18 65 -7 40 7 57 20 24z m-774 -91 c0 -9 -6 -13
-15 -10 -8 4 -17 2 -20 -4 -8 -12 -25 -2 -25 16 0 7 10 15 23 17 28 5 37 1 37
-19z m-135 -2 c0 -15 -31 -24 -52 -16 -7 2 -10 11 -7 19 7 19 59 16 59 -3z
m-851 -83 c-10 -58 -64 -191 -92 -228 -15 -19 -40 -47 -57 -63 -27 -24 -30
-34 -29 -83 0 -47 4 -58 29 -82 l29 -27 -23 27 c-18 20 -23 39 -24 78 -1 49 2
54 40 86 23 19 52 53 66 77 28 48 77 190 77 224 0 18 6 23 25 23 22 0 25 -4
25 -35 0 -103 -48 -220 -120 -294 -60 -61 -69 -87 -40 -123 20 -26 41 -36 127
-58 66 -17 110 -94 87 -154 -10 -25 -31 -19 -39 12 -9 38 -31 69 -57 83 -19 9
-18 7 4 -13 32 -27 48 -65 48 -114 0 -20 5 -44 10 -55 13 -23 50 -26 50 -3 0
21 60 44 119 44 59 0 308 -26 400 -41 102 -18 430 -15 531 4 112 21 262 38
354 40 86 1 150 -24 140 -55 -4 -14 -1 -16 13 -12 30 11 43 36 43 85 0 33 7
58 25 85 l26 39 -26 -29 c-14 -15 -29 -41 -32 -58 -9 -44 -37 -33 -41 16 -5
57 35 112 90 126 82 21 106 31 123 51 33 35 23 69 -37 132 -68 70 -108 160
-116 260 l-5 67 27 0 c21 0 26 -5 26 -26 0 -35 47 -169 77 -222 14 -23 43 -58
66 -77 37 -32 40 -39 39 -81 0 -32 -7 -57 -23 -78 -21 -30 -21 -30 -1 -12 27
23 46 80 39 114 -3 15 -26 48 -50 73 -45 48 -85 120 -118 217 -34 99 -47 92
177 92 160 0 195 -2 191 -13 -11 -28 -31 -167 -25 -172 3 -4 25 7 49 24 23 17
46 31 51 31 15 0 -1 -109 -24 -167 -21 -54 -48 -77 -189 -156 -95 -54 -79 -76
39 -51 37 8 68 14 69 14 11 0 -1 -38 -22 -68 -14 -20 -25 -41 -25 -47 -1 -32
-141 -147 -228 -187 -51 -24 -83 -31 -157 -35 -117 -7 -165 1 -165 27 0 11 5
20 12 20 6 0 9 3 5 6 -8 9 -100 -23 -166 -58 -154 -81 -343 -128 -516 -128
-143 0 -303 37 -480 112 -200 85 -184 80 -178 57 9 -34 -41 -46 -160 -37 -88
7 -115 13 -168 39 -64 32 -167 111 -199 152 -39 51 -83 147 -67 147 1 0 33 -6
70 -14 38 -8 78 -11 90 -7 19 7 18 9 -14 33 -19 14 -50 33 -69 43 -90 44 -138
86 -159 139 -22 56 -37 166 -24 166 5 0 28 -14 50 -30 23 -17 44 -27 47 -22 5
8 -7 104 -19 160 l-5 22 195 0 195 0 -6 -32z m851 -109 l50 -24 60 24 c37 15
88 26 135 29 l75 4 150 -122 c187 -153 174 -139 147 -147 l-23 -6 22 -23 c20
-22 21 -24 4 -24 -17 0 -17 -1 0 -20 18 -20 17 -20 -10 -20 l-29 0 28 -29 28
-30 -38 -6 c-69 -10 -147 -36 -254 -85 -280 -126 -318 -126 -585 0 -98 45
-197 80 -232 80 -28 0 -29 8 -2 36 l20 22 -27 6 c-25 7 -25 8 -8 21 18 13 18
14 2 20 -16 6 -15 10 9 29 l27 21 -29 5 c-27 5 -22 11 126 139 l154 133 75 -4
c52 -3 90 -12 125 -29z m-403 -867 c50 -20 68 -32 69 -47 1 -11 5 0 8 25 l6
45 45 -1 c25 0 108 -6 185 -13 138 -14 202 -11 448 16 l57 6 0 -44 c0 -24 4
-39 8 -33 6 10 172 84 187 84 3 0 -10 -25 -30 -56 -19 -30 -33 -59 -30 -64 3
-5 31 -21 63 -35 l57 -26 -26 -14 c-40 -21 -271 -97 -277 -90 -3 3 12 24 34
48 38 40 39 44 33 92 l-6 50 -1 -47 c-2 -53 3 -50 -112 -70 -102 -17 -470 -15
-570 3 l-75 15 -5 44 -5 45 -7 -45 c-7 -43 -5 -46 38 -84 24 -21 44 -42 44
-47 0 -11 -145 35 -226 72 l-69 32 40 18 c22 9 45 18 52 18 18 1 25 18 14 38
-6 10 -20 38 -32 62 -24 50 -33 50 83 3z"/>
<path d="M1415 2300 c-3 -5 1 -10 9 -10 9 0 16 5 16 10 0 6 -4 10 -9 10 -6 0
-13 -4 -16 -10z"/>
<path d="M2390 2300 c0 -5 5 -10 11 -10 5 0 7 5 4 10 -3 6 -8 10 -11 10 -2 0
-4 -4 -4 -10z"/>
<path d="M3065 2300 c-3 -5 -1 -10 4 -10 6 0 11 5 11 10 0 6 -2 10 -4 10 -3 0
-8 -4 -11 -10z"/>
<path d="M1630 1606 c0 -2 7 -7 16 -10 8 -3 12 -2 9 4 -6 10 -25 14 -25 6z"/>
<path d="M3474 1594 c-18 -14 -18 -14 6 -3 31 14 36 19 24 19 -6 0 -19 -7 -30
-16z"/>
<path d="M2563 1935 c0 -22 2 -30 4 -17 2 12 2 30 0 40 -3 9 -5 -1 -4 -23z"/>
<path d="M2233 1079 c-1 -27 -7 -57 -14 -65 -9 -11 -8 -14 9 -14 13 0 20 5 17
13 -3 6 -1 26 3 42 l9 30 13 -39 13 -39 28 34 c30 36 34 33 20 -19 -8 -25 -7
-32 5 -32 10 0 14 12 14 41 0 22 5 49 10 60 9 16 7 19 -8 19 -11 0 -26 -14
-37 -35 -22 -39 -26 -38 -40 13 -16 58 -40 53 -42 -9z"/>
<path d="M2866 1113 c4 -10 8 -36 8 -58 1 -36 -2 -40 -26 -43 -33 -4 -52 26
-46 74 3 22 0 34 -8 34 -12 0 -11 -31 2 -97 7 -39 73 -42 93 -5 14 26 1 112
-16 112 -11 0 -13 -5 -7 -17z"/>
<path d="M2425 1044 l0 -66 44 5 c50 6 71 26 71 68 0 35 -33 59 -80 59 l-35 0
0 -66z m83 33 c29 -22 0 -87 -40 -87 -15 0 -18 8 -18 48 0 27 3 51 6 55 7 6
33 -1 52 -16z"/>
<path d="M2590 1100 c0 -5 5 -10 11 -10 7 0 10 -20 7 -55 -2 -47 0 -55 14 -55
15 0 16 4 8 26 -6 14 -10 37 -10 52 1 26 2 26 45 -20 24 -27 45 -48 47 -48 2
0 4 27 4 60 -1 34 -5 60 -11 60 -6 0 -9 -18 -7 -42 l4 -43 -41 43 c-39 40 -71
54 -71 32z"/>
<path d="M1597 3742 c-15 -16 -14 -19 9 -41 13 -13 24 -26 24 -30 0 -4 -18
-18 -40 -30 -44 -25 -70 -17 -70 20 0 22 -18 24 -42 5 -21 -16 -23 -26 -5 -26
17 -1 101 -126 93 -139 -4 -7 -35 4 -84 29 -78 40 -122 50 -122 28 0 -28 66
-198 76 -198 6 0 17 6 23 14 10 12 8 19 -9 36 l-22 22 31 32 32 31 22 -27 22
-26 50 44 c29 25 43 44 34 44 -8 0 -25 13 -37 30 l-22 30 40 26 41 27 20 -20
c11 -11 22 -28 23 -39 4 -20 21 -20 43 -2 17 14 17 28 0 28 -16 0 -97 113 -97
135 0 20 -13 19 -33 -3z m-156 -255 c-23 -24 -27 -22 -36 15 -7 27 -7 28 25
17 l32 -12 -21 -20z"/>
<path d="M4170 3757 c0 -3 18 -20 40 -37 22 -17 40 -29 40 -27 0 3 -18 20 -40
37 -22 17 -40 29 -40 27z"/>
<path d="M3582 3717 c2 -7 -14 -33 -34 -58 -52 -64 -58 -100 -22 -134 55 -51
96 -42 150 32 16 21 36 45 47 54 18 15 18 16 -7 32 -24 16 -30 15 -27 -6 2
-10 -53 -89 -73 -106 -38 -32 -98 17 -75 62 17 32 71 87 86 87 18 0 16 14 -5
33 -22 20 -44 22 -40 4z"/>
<path d="M4273 3674 c5 -7 12 -25 17 -41 7 -23 8 -24 9 -7 1 12 -7 30 -16 41
-10 10 -14 13 -10 7z"/>
<path d="M846 3569 c-8 -42 0 -50 9 -9 4 17 5 34 2 36 -2 3 -7 -10 -11 -27z"/>
<path d="M3750 3589 c0 -17 -91 -119 -106 -119 -27 0 -13 -26 36 -68 30 -26
57 -41 65 -38 18 7 20 26 3 26 -7 0 -26 11 -42 24 l-30 23 48 57 c27 31 55 56
62 56 19 0 17 20 -3 36 -22 16 -33 17 -33 3z"/>
<path d="M4312 3530 c0 -14 2 -19 5 -12 2 6 2 18 0 25 -3 6 -5 1 -5 -13z"/>
<path d="M831 3494 c0 -11 3 -14 6 -6 3 7 2 16 -1 19 -3 4 -6 -2 -5 -13z"/>
<path d="M806 3444 c-18 -25 -18 -25 3 -12 12 7 21 18 21 25 0 18 -2 16 -24
-13z"/>
<path d="M1235 3445 c-30 -29 -33 -75 -7 -98 25 -23 41 -21 84 8 42 28 68 24
68 -11 0 -26 -38 -57 -66 -52 -9 2 -19 -3 -21 -9 -3 -7 3 -13 13 -13 9 0 15
-3 11 -6 -3 -3 -43 4 -88 15 -97 24 -119 26 -119 8 0 -8 22 -50 50 -95 l49
-82 -43 0 c-38 0 -45 3 -50 25 -7 29 -39 49 -66 40 -18 -6 -80 -95 -80 -116 0
-5 6 -9 13 -7 18 3 121 -55 144 -82 11 -13 15 -13 28 4 20 26 20 50 0 42 -19
-7 -55 14 -55 32 0 7 10 16 22 21 25 9 58 3 58 -10 0 -21 22 -6 45 31 28 45
31 60 11 60 -30 0 -36 25 -13 58 26 37 31 38 56 13 18 -18 20 -19 35 -2 9 10
16 25 16 34 0 9 7 17 15 17 26 0 65 47 65 78 0 57 -63 81 -113 42 -30 -24 -55
-26 -64 -5 -8 22 25 55 55 55 21 0 22 2 12 15 -18 21 -37 19 -65 -10z m-37
-191 c22 -6 22 -8 6 -25 -13 -14 -20 -16 -31 -8 -14 12 -18 39 -5 39 4 0 17
-3 30 -6z m-114 -130 c8 -22 -4 -64 -18 -64 -7 0 -21 6 -31 14 -17 12 -18 18
-7 40 13 29 46 35 56 10z"/>
<path d="M4330 3439 c0 -8 19 -27 43 -42 23 -16 31 -19 17 -7 -14 11 -33 30
-42 42 -12 13 -18 15 -18 7z"/>
<path d="M725 3374 l-50 -46 53 42 c45 36 59 51 50 50 -2 0 -25 -21 -53 -46z"/>
<path d="M3930 3407 c0 -7 -13 -20 -29 -30 -42 -25 -81 -75 -81 -104 0 -32 51
-83 83 -83 24 0 90 42 116 73 7 9 20 17 27 17 19 0 17 14 -4 33 -24 22 -32 21
-32 -3 0 -22 -83 -90 -110 -90 -21 0 -50 31 -50 53 0 20 89 97 113 97 20 0 21
4 7 31 -12 21 -40 26 -40 6z"/>
<path d="M4420 3366 c0 -2 8 -10 18 -17 15 -13 16 -12 3 4 -13 16 -21 21 -21
13z"/>
<path d="M4460 3336 c0 -2 8 -10 18 -17 15 -13 16 -12 3 4 -13 16 -21 21 -21
13z"/>
<path d="M624 3294 l-39 -36 43 32 c37 28 49 40 39 40 -2 0 -21 -16 -43 -36z"/>
<path d="M4507 3299 c14 -17 103 -83 103 -76 0 3 -26 24 -57 48 -32 23 -53 36
-46 28z"/>
<path d="M554 3239 c-19 -22 -19 -22 4 -8 12 8 22 17 22 21 0 12 -6 9 -26 -13z"/>
<path d="M4070 3236 c0 -16 -129 -85 -147 -79 -7 3 -13 0 -13 -5 0 -15 39 -59
40 -45 0 13 78 68 86 61 2 -2 -10 -24 -26 -48 l-30 -45 56 -3 55 -3 -27 -21
c-14 -12 -36 -23 -48 -24 -11 -1 -22 -3 -24 -3 -2 -1 47 -100 55 -110 1 -2 11
2 20 10 20 17 68 39 85 39 6 0 -6 -18 -26 -40 -20 -23 -34 -45 -31 -50 4 -6
30 -10 58 -10 l52 -1 -35 -19 c-19 -11 -45 -19 -57 -20 -28 0 -27 0 -6 -61 18
-49 26 -58 38 -39 3 6 15 10 25 10 28 0 47 -70 24 -87 -9 -6 -23 -9 -31 -6
-13 5 -14 -3 -8 -53 9 -67 11 -72 27 -56 7 7 26 12 44 12 34 0 44 -16 44 -71
0 -22 -5 -28 -32 -32 -18 -2 -39 0 -45 5 -10 8 -13 3 -13 -19 0 -40 6 -43 40
-26 16 8 61 15 100 16 70 2 71 2 65 27 -8 32 -6 32 -43 18 -17 -7 -33 -10 -36
-8 -2 3 -7 26 -11 51 -7 44 -6 47 19 51 15 3 29 1 32 -3 13 -22 26 -7 20 23
-8 38 -15 47 -25 30 -10 -16 -150 -37 -162 -25 -6 6 20 29 59 56 74 51 109 83
99 93 -3 4 -51 14 -107 23 -55 9 -100 21 -100 26 0 15 134 67 153 59 20 -7 23
14 5 39 -9 12 -32 17 -78 19 l-65 3 43 45 c44 47 48 56 32 80 -8 12 -12 12
-18 3 -9 -14 -126 -63 -149 -63 -7 0 -13 7 -13 15 0 20 109 89 138 87 25 -2
27 5 7 32 -12 16 -22 18 -81 11 l-68 -7 19 29 c9 15 26 37 36 49 22 23 24 45
7 62 -16 16 -28 15 -28 -2z m210 -525 c0 -6 -10 -17 -22 -25 -17 -12 -24 -13
-30 -3 -15 24 -8 37 22 37 17 0 30 -4 30 -9z"/>
<path d="M480 3179 l-45 -41 42 32 c37 27 61 51 51 50 -2 0 -23 -19 -48 -41z"/>
<path d="M4620 3216 c0 -2 8 -10 18 -17 15 -13 16 -12 3 4 -13 16 -21 21 -21
13z"/>
<path d="M4660 3186 c0 -2 8 -10 18 -17 15 -13 16 -12 3 4 -13 16 -21 21 -21
13z"/>
<path d="M4700 3157 c0 -3 20 -21 45 -41 25 -21 45 -34 45 -29 -1 8 -90 77
-90 70z"/>
<path d="M385 3106 c-22 -19 -38 -36 -35 -38 3 -2 23 13 45 34 50 47 44 49
-10 4z"/>
<path d="M371 3004 c0 -11 3 -14 6 -6 3 7 2 16 -1 19 -3 4 -6 -2 -5 -13z"/>
<path d="M934 2965 c-23 -23 -54 -82 -54 -103 0 -5 17 -12 38 -16 44 -8 125
-46 129 -62 3 -7 -28 -13 -87 -18 -153 -11 -155 -19 -26 -116 77 -58 74 -69
-16 -57 -40 5 -77 13 -82 18 -18 17 -27 9 -24 -18 2 -20 16 -35 57 -59 53 -32
54 -33 30 -42 -13 -5 -41 -12 -62 -16 -28 -5 -40 -14 -47 -32 -14 -36 -13 -36
19 -29 32 7 148 -12 157 -26 11 -19 24 -7 24 22 0 26 -3 29 -20 24 -26 -8
-102 4 -95 15 3 5 23 11 44 15 65 11 70 29 17 60 -25 15 -46 29 -46 32 0 11
94 -7 101 -19 11 -17 16 -9 22 38 3 23 7 47 9 55 2 8 -4 13 -13 11 -25 -4 -42
23 -34 57 7 35 28 45 55 29 10 -7 20 -10 22 -8 2 3 16 44 32 91 26 78 28 90
16 118 -25 62 -120 82 -166 36z m107 -22 c16 -10 32 -25 35 -35 7 -22 -4 -78
-16 -78 -20 0 -140 60 -140 70 0 19 48 60 71 60 11 0 34 -8 50 -17z m-88 -233
c-8 -31 -18 -32 -43 -5 l-23 25 35 0 c31 0 35 -3 31 -20z"/>
<path d="M421 2824 c0 -11 3 -14 6 -6 3 7 2 16 -1 19 -3 4 -6 -2 -5 -13z"/>
<path d="M441 2760 c0 -8 4 -24 9 -35 5 -13 9 -14 9 -5 0 8 -4 24 -9 35 -5 13
-9 14 -9 5z"/>
<path d="M471 2654 c0 -11 3 -14 6 -6 3 7 2 16 -1 19 -3 4 -6 -2 -5 -13z"/>
<path d="M4636 2645 c-9 -26 -7 -32 5 -12 6 10 9 21 6 23 -2 3 -7 -2 -11 -11z"/>
<path d="M491 2585 c1 -19 18 -51 18 -35 0 8 -4 22 -9 30 -5 8 -9 11 -9 5z"/>
<path d="M511 2514 c0 -11 3 -14 6 -6 3 7 2 16 -1 19 -3 4 -6 -2 -5 -13z"/>
<path d="M4611 2504 c0 -11 3 -14 6 -6 3 7 2 16 -1 19 -3 4 -6 -2 -5 -13z"/>
<path d="M496 2464 c-4 -14 -5 -28 -3 -31 3 -2 8 8 11 23 4 14 5 28 3 31 -3 2
-8 -8 -11 -23z"/>
<path d="M4631 2450 c0 -8 4 -22 9 -30 12 -18 12 -2 0 25 -6 13 -9 15 -9 5z"/>
<path d="M471 2374 c0 -11 3 -14 6 -6 3 7 2 16 -1 19 -3 4 -6 -2 -5 -13z"/>
<path d="M447 2299 c-3 -12 -2 -31 2 -42 6 -17 8 -12 8 21 0 47 -2 52 -10 21z"/>
<path d="M4661 2244 c0 -11 3 -14 6 -6 3 7 2 16 -1 19 -3 4 -6 -2 -5 -13z"/>
<path d="M471 2190 c0 -8 4 -24 9 -35 5 -13 9 -14 9 -5 0 8 -4 24 -9 35 -5 13
-9 14 -9 5z"/>
<path d="M4636 2165 c-3 -9 -6 -22 -5 -28 0 -7 5 -1 10 12 5 13 8 26 5 28 -2
2 -6 -3 -10 -12z"/>
<path d="M490 2120 c0 -8 5 -22 10 -30 9 -13 10 -13 10 0 0 8 -5 22 -10 30 -9
13 -10 13 -10 0z"/>
<path d="M4611 2064 c0 -11 3 -14 6 -6 3 7 2 16 -1 19 -3 4 -6 -2 -5 -13z"/>
<path d="M511 2060 c0 -8 4 -24 9 -35 5 -13 9 -14 9 -5 0 8 -4 24 -9 35 -5 13
-9 14 -9 5z"/>
<path d="M4590 1997 c0 -15 -13 -17 -97 -17 l-98 0 -75 -71 -75 -71 75 66 75
66 98 0 c79 0 99 3 104 15 3 9 3 19 -1 22 -3 4 -6 -1 -6 -10z"/>
<path d="M541 1964 c-1 -6 4 -25 10 -43 l11 -31 103 0 104 0 91 -87 c85 -80
91 -89 86 -117 -4 -22 -3 -27 4 -16 19 30 9 48 -83 138 l-93 91 -104 3 -103 3
-13 35 c-7 19 -13 30 -13 24z"/>
<path d="M4209 1813 l-24 -28 28 24 c25 23 32 31 24 31 -2 0 -14 -12 -28 -27z"/>
<path d="M4201 1764 c0 -11 3 -14 6 -6 3 7 2 16 -1 19 -3 4 -6 -2 -5 -13z"/>
<path d="M4212 1710 c0 -14 2 -19 5 -12 2 6 2 18 0 25 -3 6 -5 1 -5 -13z"/>
<path d="M4232 1615 c0 -11 4 -31 8 -45 6 -20 8 -21 8 -5 0 11 -4 31 -8 45 -6
20 -8 21 -8 5z"/>
<path d="M921 1604 c0 -11 3 -14 6 -6 3 7 2 16 -1 19 -3 4 -6 -2 -5 -13z"/>
<path d="M896 1535 c-3 -9 -6 -22 -5 -28 0 -7 5 -1 10 12 5 13 8 26 5 28 -2 2
-6 -3 -10 -12z"/>
<path d="M4250 1522 c0 -8 75 -81 125 -122 17 -14 13 -8 -10 14 -22 21 -57 56
-77 77 -21 21 -38 35 -38 31z"/>
<path d="M865 1466 c-11 -12 -47 -45 -80 -75 -33 -29 -42 -40 -20 -23 65 50
130 110 125 114 -3 2 -14 -5 -25 -16z"/>
<path d="M1290 1357 c0 -15 -103 -107 -119 -107 -14 0 -13 -11 3 -32 18 -24
29 -23 41 5 13 28 55 36 55 10 0 -34 -12 -63 -26 -63 -17 0 -17 -5 -4 -31 19
-35 36 -20 55 47 l19 66 48 -5 c53 -7 58 -1 28 34 -19 22 -21 23 -30 7 -11
-18 -36 -23 -65 -12 -14 6 -14 8 1 25 9 11 23 19 31 19 16 0 16 5 3 31 -12 21
-40 26 -40 6z"/>
<path d="M737 1305 c3 -16 9 -37 14 -45 15 -27 10 11 -6 45 l-14 30 6 -30z"/>
<path d="M4391 1314 c0 -11 3 -14 6 -6 3 7 2 16 -1 19 -3 4 -6 -2 -5 -13z"/>
<path d="M3800 1308 c0 -8 20 -56 45 -108 45 -91 46 -92 65 -75 24 22 26 35 5
35 -24 0 -29 27 -11 55 18 28 53 33 62 10 8 -20 24 -19 40 3 17 22 17 32 1 32
-8 0 -40 11 -73 24 -82 33 -134 43 -134 24z m94 -49 c9 -8 -10 -39 -24 -39 -5
0 -13 14 -19 31 -10 28 -9 30 12 23 12 -3 26 -10 31 -15z"/>
<path d="M3707 1211 c-31 -33 -71 -69 -89 -80 -18 -12 -44 -30 -58 -42 -22
-19 -23 -22 -7 -30 25 -14 108 -119 102 -129 -3 -5 -35 13 -71 40 -118 88
-133 81 -105 -46 10 -49 18 -91 16 -92 -3 -3 -65 30 -103 53 -1 1 4 23 12 48
15 49 10 55 -25 36 -13 -6 -18 -16 -15 -26 8 -20 -3 -83 -14 -83 -8 0 -22 31
-26 55 -1 6 -2 13 -3 18 0 4 -15 0 -32 -8 l-31 -16 24 -22 c27 -25 75 -124 65
-134 -4 -3 -35 24 -69 60 -76 80 -97 85 -99 25 -3 -79 -1 -170 4 -175 3 -2 15
1 27 7 20 11 20 13 6 29 -24 26 -20 35 21 55 35 17 38 17 50 0 7 -10 13 -24
13 -31 0 -16 3 -16 47 2 58 24 65 33 42 56 -19 19 -26 54 -11 63 13 8 72 -25
72 -40 0 -20 23 -17 64 7 39 23 44 34 21 43 -25 9 -17 41 15 60 25 14 34 15
45 6 8 -7 15 -19 15 -26 0 -21 12 -17 58 17 42 31 53 49 30 49 -7 0 -21 11
-30 24 -15 20 -15 26 -4 35 19 16 67 3 73 -20 6 -23 12 -23 41 0 26 22 28 31
7 31 -8 0 -30 8 -50 17 -33 16 -35 19 -35 69 0 29 5 56 11 60 12 7 121 -95
113 -107 -12 -20 16 -15 36 6 17 18 19 25 9 25 -21 0 -123 106 -115 119 4 6
16 11 27 11 23 0 26 25 3 34 -9 3 -17 6 -18 6 -2 0 -28 -27 -59 -59z m-37
-119 c0 -10 -7 -28 -16 -41 l-16 -22 -24 22 c-22 21 -23 24 -7 41 21 24 63 24
63 0z m-135 -128 c20 -15 20 -16 1 -29 -24 -18 -36 -11 -36 21 0 28 7 29 35 8z
m-300 -154 c20 -22 20 -25 -12 -34 -20 -7 -23 -4 -23 23 0 36 10 39 35 11z"/>
<path d="M761 1235 c1 -19 18 -51 18 -35 0 8 -4 22 -9 30 -5 8 -9 11 -9 5z"/>
<path d="M1375 1216 c-49 -22 -70 -53 -70 -103 0 -59 36 -93 98 -93 46 1 64
11 91 53 19 28 40 34 65 18 12 -8 6 -20 -29 -66 -23 -30 -50 -60 -59 -65 -14
-9 -13 -13 9 -31 24 -20 25 -20 29 -3 2 10 24 45 49 76 35 46 48 56 58 47 8
-6 14 -18 14 -26 0 -19 24 -11 28 10 5 23 -101 100 -128 92 -16 -5 -20 -2 -20
15 0 32 -28 67 -62 79 -38 13 -36 13 -73 -3z m93 -38 c32 -32 -2 -107 -58
-126 -26 -9 -34 -8 -57 12 -21 18 -25 28 -19 50 15 59 99 99 134 64z"/>
<path d="M4361 1204 c0 -11 3 -14 6 -6 3 7 2 16 -1 19 -3 4 -6 -2 -5 -13z"/>
<path d="M791 1145 c1 -19 18 -51 18 -35 0 8 -4 22 -9 30 -5 8 -9 11 -9 5z"/>
<path d="M4336 1114 c-4 -14 -5 -28 -3 -31 3 -2 8 8 11 23 4 14 5 28 3 31 -3
2 -8 -8 -11 -23z"/>
<path d="M811 1085 c1 -19 18 -51 18 -35 0 8 -4 22 -9 30 -5 8 -9 11 -9 5z"/>
<path d="M4299 1023 c-13 -16 -12 -17 4 -4 9 7 17 15 17 17 0 8 -8 3 -21 -13z"/>
<path d="M1655 992 c-128 -87 -137 -96 -119 -109 26 -19 44 -16 44 6 0 31 17
34 55 11 33 -21 38 -44 11 -62 -12 -8 10 -38 29 -38 12 0 45 139 45 193 0 34
-14 34 -65 -1z m25 -45 c0 -32 -8 -38 -31 -24 -17 10 -17 13 -2 29 22 24 33
23 33 -5z"/>
<path d="M870 976 c0 -2 14 -14 30 -26 17 -12 30 -19 30 -16 0 2 -13 14 -30
26 -16 12 -30 19 -30 16z"/>
<path d="M1772 930 c-13 -6 -32 -29 -43 -55 -19 -42 -19 -47 -4 -78 19 -41 62
-67 109 -67 32 0 38 4 53 36 17 34 17 36 -2 50 -10 8 -28 14 -38 14 -19 0 -19
-1 -3 -19 34 -37 -6 -71 -54 -46 -55 29 -49 93 12 138 37 27 78 15 92 -28 13
-40 16 -42 26 -25 36 57 -67 112 -148 80z"/>
<path d="M4159 923 c-13 -16 -12 -17 4 -4 9 7 17 15 17 17 0 8 -8 3 -21 -13z"/>
<path d="M940 927 c0 -2 21 -18 48 -36 35 -25 40 -26 17 -6 -30 26 -65 49 -65
42z"/>
<path d="M1950 866 c0 -31 -39 -128 -59 -144 -9 -7 -11 -15 -5 -20 20 -18 226
-82 264 -82 33 0 75 26 88 55 32 71 1 127 -86 151 -31 8 -88 26 -125 40 -38
13 -70 24 -73 24 -2 0 -4 -11 -4 -24z m118 -56 l23 -19 -18 -61 c-15 -53 -33
-79 -33 -49 0 6 -8 8 -20 4 -19 -6 -80 19 -80 33 1 50 28 64 69 36 19 -14 25
-14 32 -3 14 22 11 29 -14 29 -36 0 -57 21 -47 47 8 19 13 21 37 12 15 -5 38
-19 51 -29z m120 -26 c33 -23 26 -101 -12 -126 -16 -11 -74 -10 -80 1 -3 5 3
39 14 75 22 71 36 80 78 50z"/>
<path d="M3110 850 c-11 -7 -12 -12 -3 -21 10 -10 3 -63 -11 -76 -9 -9 -66 41
-66 58 0 15 -5 16 -32 8 -18 -5 -46 -9 -62 -9 -39 0 -95 -36 -102 -67 l-7 -25
-24 26 c-28 30 -63 41 -101 31 -15 -4 -44 -6 -65 -6 -32 1 -38 -1 -35 -17 3
-19 -26 -72 -40 -72 -14 0 -42 58 -36 74 5 13 -1 16 -30 16 -20 0 -36 -2 -36
-5 0 -2 18 -30 40 -61 40 -57 50 -100 29 -121 -7 -7 -3 -12 16 -17 34 -9 48 0
33 23 -14 23 -5 58 26 96 l25 30 1 -42 c0 -30 7 -50 26 -72 22 -27 32 -31 74
-31 44 0 52 3 76 35 l26 35 31 -26 c26 -21 38 -25 72 -22 23 3 54 13 69 23 24
16 27 23 21 54 -9 47 -15 52 -53 45 -37 -8 -42 -21 -9 -26 14 -2 23 -11 25
-27 4 -28 -12 -41 -55 -41 -35 0 -73 41 -73 80 0 24 17 61 34 72 19 13 59 9
78 -9 16 -14 21 -15 28 -4 6 11 17 6 49 -19 33 -27 41 -40 41 -67 0 -28 3 -33
24 -33 27 0 45 18 28 29 -27 17 -29 55 -6 120 13 36 24 67 24 69 0 6 -37 1
-50 -8z m-336 -122 c23 -32 20 -94 -4 -118 -52 -52 -107 -2 -101 92 3 47 78
66 105 26z"/>
<path d="M1041 810 c0 -8 4 -24 9 -35 5 -13 9 -14 9 -5 0 8 -4 24 -9 35 -5 13
-9 14 -9 5z"/>
<path d="M2262 783 c7 -26 -11 -144 -24 -161 -16 -19 -3 -26 70 -38 73 -13 82
-11 82 14 0 14 -8 17 -46 13 -55 -4 -68 7 -59 47 6 28 8 29 43 21 51 -12 52
-12 52 11 0 12 -6 20 -12 19 -7 -1 -26 -1 -41 0 -25 1 -28 4 -25 29 3 24 7 27
33 24 17 -2 37 -10 47 -18 11 -11 18 -12 23 -4 14 22 -4 38 -52 44 -26 4 -59
10 -72 13 -20 5 -23 3 -19 -14z"/>
<path d="M1091 650 c0 -8 4 -22 9 -30 12 -18 12 -2 0 25 -6 13 -9 15 -9 5z"/>
<path d="M1121 554 c0 -11 3 -14 6 -6 3 7 2 16 -1 19 -3 4 -6 -2 -5 -13z"/>
<path d="M2574 498 c-4 -7 -3 -8 5 -4 6 4 20 2 29 -6 15 -12 16 -11 3 5 -16
20 -27 22 -37 5z"/>
<path d="M1141 495 c1 -19 18 -51 18 -35 0 8 -4 22 -9 30 -5 8 -9 11 -9 5z"/>
<path d="M2669 453 c13 -10 43 -28 65 -41 23 -13 30 -15 17 -5 -13 10 -43 28
-65 41 -23 13 -30 15 -17 5z"/>
<path d="M2454 424 c-18 -14 -18 -15 4 -4 12 6 22 13 22 15 0 8 -5 6 -26 -11z"/>
<path d="M2398 393 c-23 -15 -45 -43 -36 -47 2 -1 18 14 36 32 38 36 38 38 0
15z"/>
<path d="M2811 355 c1 -19 18 -51 18 -35 0 8 -4 22 -9 30 -5 8 -9 11 -9 5z"/>
<path d="M3960 332 c0 -9 -75 -12 -288 -12 l-289 0 -24 -27 -24 -28 26 23 c25
22 29 22 312 22 269 0 316 4 293 27 -3 4 -6 1 -6 -5z"/>
<path d="M1800 316 c8 -11 40 -43 70 -72 l55 -54 186 0 185 0 17 35 c23 49 21
58 -4 13 l-19 -38 -181 0 -181 0 -71 68 c-39 37 -65 58 -57 48z"/>
<path d="M2336 293 c-6 -14 -5 -15 5 -6 7 7 10 15 7 18 -3 3 -9 -2 -12 -12z"/>
<path d="M3289 233 l-24 -28 28 24 c15 14 27 26 27 28 0 8 -8 1 -31 -24z"/>
<path d="M3230 194 c-17 -9 -20 -14 -9 -14 9 0 22 7 29 15 15 18 13 18 -20 -1z"/>
<path d="M2860 190 c0 -5 5 -10 11 -10 5 0 7 5 4 10 -3 6 -8 10 -11 10 -2 0
-4 -4 -4 -10z"/>
</g>
</svg>
